<svg width="283" height="222" viewBox="0 0 283 222" fill="none" xmlns="http://www.w3.org/2000/svg">
<path d="M239.461 129.951V211.171C239.461 214.104 238.384 216.642 236.23 218.785C234.076 220.929 231.525 222 228.577 222H163.269V157.025H119.731V222H54.4229C51.475 222 48.9239 220.929 46.7697 218.785C44.6154 216.642 43.5383 214.104 43.5383 211.171V129.951C43.5383 129.839 43.5667 129.669 43.6234 129.444C43.68 129.218 43.7084 129.049 43.7084 128.936L141.5 48.7319L239.291 128.936C239.405 129.162 239.461 129.5 239.461 129.951ZM277.387 118.276L266.843 130.797C265.936 131.813 264.745 132.433 263.271 132.659H262.761C261.287 132.659 260.097 132.264 259.19 131.474L141.5 33.8417L23.8099 131.474C22.4494 132.377 21.0888 132.772 19.7282 132.659C18.2543 132.433 17.0638 131.813 16.1567 130.797L5.61223 118.276C4.70518 117.148 4.30835 115.823 4.42173 114.3C4.53511 112.777 5.15871 111.564 6.29252 110.662L128.574 9.30662C132.203 6.37369 136.511 4.90723 141.5 4.90723C146.489 4.90723 150.797 6.37369 154.425 9.30662L195.923 43.8249V10.8295C195.923 9.25021 196.433 7.95296 197.454 6.93771C198.474 5.92247 199.778 5.41485 201.365 5.41485H234.019C235.606 5.41485 236.91 5.92247 237.931 6.93771C238.951 7.95296 239.461 9.25021 239.461 10.8295V79.8661L276.707 110.662C277.841 111.564 278.465 112.777 278.578 114.3C278.691 115.823 278.295 117.148 277.387 118.276Z" fill="#82C5BB"/>
</svg>